# xmcd CD database file
#
# Track frame offsets:
#	150
#	22471
#	44568
#	67853
#	84308
#	97478
#	113073
#	136816
#	151852
#	175839
#	197686
#	213738
#	239556
#
# Disc length: 3560 seconds
#
# Revision: 0
# Processed by: cddbd v1.5.2PL0 Copyright (c) Steve Scherf et al.
# Submitted via: CDex 1.70beta2
#
DISCID=bb0de60d
DTITLE=The Wolfe Gang - What's Cooking
DYEAR=2005
DGENRE=Blues
TTITLE0=What's Cooking
TTITLE1=T-Bone Shuffle
TTITLE2=Too Much Stuff
TTITLE3=What's the Time
TTITLE4=Down Town
TTITLE5=Ruler of my Heart
TTITLE6=Over Take Me Baby
TTITLE7=Choo Choo Ch'Boogie
TTITLE8=Wayfaring Stranger
TTITLE9=Drown in My Own Tears
TTITLE10=Little Bit Bad
TTITLE11=Ventilator Blues
TTITLE12=Don't Mess with My Man
EXTD=YEAR: 2005
EXTT0=
EXTT1=
EXTT2=
EXTT3=
EXTT4=
EXTT5=
EXTT6=
EXTT7=
EXTT8=
EXTT9=
EXTT10=
EXTT11=
EXTT12=
PLAYORDER=
